<svg width="123" height="121" xmlns="http://www.w3.org/2000/svg" xmlns:xlink="http://www.w3.org/1999/xlink" overflow="hidden"><defs><clipPath id="clip0"><path d="M80 481 203 481 203 602 80 602Z" fill-rule="evenodd" clip-rule="evenodd"/></clipPath></defs><g clip-path="url(#clip0)" transform="translate(-80 -481)"><path d="M180.448 584.807 173.923 584.493 163.66 582.899 153.716 580.349 144.22 576.844 135.169 572.51 126.629 567.284 118.663 561.357 111.334 554.666 104.646 547.341 98.6532 539.371 93.4881 530.826 89.156 521.78 85.6507 512.284 83.1011 502.34 81.5074 492.077 81.0023 481.596 84.9977 481.404 85.4977 491.779 85.4763 491.568 87.0388 501.631 86.9998 501.441 89.4998 511.191 89.4388 510.995 92.8763 520.307 92.8038 520.136 97.0538 529.011 96.9616 528.84 102.024 537.215 101.911 537.048 107.786 544.86 107.664 544.714 114.227 551.901 114.099 551.773 121.286 558.336 121.131 558.208 128.944 564.02 128.794 563.919 137.169 569.044 136.989 568.946 145.864 573.196 145.693 573.124 155.005 576.561 154.809 576.5 164.559 579 164.369 578.961 174.432 580.524 174.221 580.502 180.641 580.812ZM169.985 573.563 184.509 583 169.145 590.998C168.165 591.508 166.957 591.127 166.447 590.147 165.938 589.167 166.318 587.96 167.298 587.45L179.621 581.035 179.455 584.486 167.806 576.917C166.88 576.315 166.617 575.076 167.218 574.15 167.82 573.224 169.059 572.961 169.985 573.563Z" fill="#59AAD3"/></g></svg>