<svg width="138" height="138" xmlns="http://www.w3.org/2000/svg" xmlns:xlink="http://www.w3.org/1999/xlink" overflow="hidden"><defs><clipPath id="clip0"><path d="M966 128 1104 128 1104 266 966 266Z" fill-rule="evenodd" clip-rule="evenodd"/></clipPath></defs><g clip-path="url(#clip0)" transform="translate(-966 -128)"><path d="M982.193 243.448 982.507 236.923 984.101 226.66 986.651 216.716 990.156 207.22 994.49 198.169 999.716 189.629 1005.64 181.663 1012.33 174.334 1019.66 167.646 1027.63 161.653 1036.17 156.488 1045.22 152.156 1054.72 148.651 1064.66 146.101 1074.92 144.507 1081.45 144.193 1081.64 148.188 1075.22 148.498 1075.43 148.476 1065.37 150.039 1065.56 150 1055.81 152.5 1056.01 152.439 1046.69 155.876 1046.86 155.804 1037.99 160.054 1038.16 159.962 1029.78 165.024 1029.95 164.911 1022.14 170.786 1022.29 170.664 1015.1 177.227 1015.23 177.099 1008.66 184.286 1008.79 184.131 1002.98 191.944 1003.08 191.794 997.956 200.169 998.054 199.989 993.804 208.864 993.876 208.693 990.439 218.005 990.5 217.809 988 227.559 988.039 227.369 986.476 237.432 986.498 237.221 986.188 243.641ZM993.437 232.985 984 247.509 976.002 232.145C975.492 231.165 975.873 229.957 976.853 229.447 977.833 228.938 979.04 229.318 979.55 230.298L985.965 242.621 982.514 242.455 990.083 230.806C990.685 229.88 991.924 229.617 992.85 230.218 993.776 230.82 994.039 232.059 993.437 232.985ZM1070.15 138.002 1085.51 146 1070.99 155.437C1070.06 156.039 1068.82 155.776 1068.22 154.85 1067.62 153.924 1067.88 152.685 1068.81 152.083L1080.45 144.514 1080.62 147.965 1068.3 141.55C1067.32 141.04 1066.94 139.833 1067.45 138.853 1067.96 137.873 1069.17 137.492 1070.15 138.002Z" fill="#7F7F7F"/></g></svg>