<svg width="77" height="79" xmlns="http://www.w3.org/2000/svg" xmlns:xlink="http://www.w3.org/1999/xlink" overflow="hidden"><defs><clipPath id="clip0"><path d="M113 462 190 462 190 541 113 541Z" fill-rule="evenodd" clip-rule="evenodd"/></clipPath></defs><g clip-path="url(#clip0)" transform="translate(-113 -462)"><path d="M188.895 540.997 182.859 540.68 176.911 539.774 171.156 538.287 165.664 536.284 160.354 533.759 155.436 530.718 150.851 527.295 146.584 523.416 142.711 519.156 139.215 514.559 136.237 509.574 133.718 504.341 131.713 498.844 130.226 493.089 129.32 487.141 129.211 485.06 133.205 484.849 133.31 486.832 133.29 486.637 134.165 492.387 134.124 492.187 135.561 497.75 135.504 497.565 137.441 502.877 137.365 502.695 139.802 507.757 139.717 507.599 142.592 512.412 142.467 512.227 145.842 516.664 145.73 516.53 149.48 520.655 149.345 520.52 153.47 524.27 153.321 524.147 157.759 527.46 157.614 527.362 162.364 530.299 162.172 530.194 167.297 532.631 167.123 532.559 172.435 534.496 172.25 534.439 177.813 535.876 177.613 535.835 183.363 536.71 183.168 536.69 189.105 537.003ZM123.07 496.39 131 480.991 140.501 495.473C141.107 496.396 140.85 497.636 139.926 498.242 139.003 498.848 137.763 498.591 137.157 497.667L129.536 486.052 132.986 485.87 126.627 498.221C126.121 499.203 124.915 499.59 123.933 499.084 122.951 498.578 122.565 497.372 123.07 496.39Z" fill="#7F7F7F"/></g></svg>