<svg width="37" height="236" xmlns="http://www.w3.org/2000/svg" xmlns:xlink="http://www.w3.org/1999/xlink" overflow="hidden"><defs><clipPath id="clip0"><path d="M709 144 746 144 746 380 709 380Z" fill-rule="evenodd" clip-rule="evenodd"/></clipPath></defs><g clip-path="url(#clip0)" transform="translate(-709 -144)"><path d="M2 3.9592 2.0001 195.501-1.9999 195.501-2 3.9592ZM-8.72755 14.9523 1.6708e-07-0.0092696 8.72757 14.9523C9.28413 15.9064 8.96185 17.131 8.00775 17.6876 7.05365 18.2441 5.82901 17.9218 5.27245 16.9677L-1.72756 4.96774 1.72756 4.96774-5.27243 16.9677C-5.82899 17.9218-7.05363 18.2441-8.00773 17.6876-8.96184 17.131-9.28411 15.9064-8.72755 14.9523ZM8.72765 184.508 0.000104409 199.469-8.72746 184.508C-9.28402 183.554-8.96175 182.329-8.00765 181.773-7.05354 181.216-5.82891 181.538-5.27235 182.492L1.72766 194.492-1.72746 194.492 5.27254 182.492C5.8291 181.538 7.05373 181.216 8.00784 181.773 8.96194 182.329 9.28421 183.554 8.72765 184.508Z" fill="#7F7F7F" transform="matrix(1 0 0 -1 727 361.46)"/></g></svg>