<svg width="157" height="37" xmlns="http://www.w3.org/2000/svg" xmlns:xlink="http://www.w3.org/1999/xlink" overflow="hidden"><defs><clipPath id="clip0"><path d="M1296 129 1453 129 1453 166 1296 166Z" fill-rule="evenodd" clip-rule="evenodd"/></clipPath></defs><g clip-path="url(#clip0)" transform="translate(-1296 -129)"><path d="M3.96009-2 116.502-1.9999 116.502 2.0001 3.96009 2ZM14.9522 8.72757-0.0092696-2.46346e-07 14.9523-8.72754C15.9064-9.2841 17.131-8.96183 17.6876-8.00773 18.2441-7.05362 17.9219-5.82899 16.9677-5.27243L4.96774 1.72756 4.96774-1.72755 16.9677 5.27246C17.9218 5.82902 18.2441 7.05365 17.6875 8.00776 17.131 8.96186 15.9064 9.28413 14.9522 8.72757ZM105.51-8.72747 120.472 0.000105233 105.51 8.72765C104.556 9.28421 103.331 8.96194 102.775 8.00783 102.218 7.05373 102.541 5.82909 103.495 5.27253L115.495-1.72746 115.495 1.72766 103.495-5.27235C102.541-5.82891 102.218-7.05355 102.775-8.00765 103.331-8.96176 104.556-9.28403 105.51-8.72747Z" fill="#7F7F7F" transform="matrix(-1 -8.74228e-08 -8.74228e-08 1 1434.46 148)"/></g></svg>