<svg width="140" height="37" xmlns="http://www.w3.org/2000/svg" xmlns:xlink="http://www.w3.org/1999/xlink" overflow="hidden"><defs><clipPath id="clip0"><path d="M506 524 646 524 646 561 506 561Z" fill-rule="evenodd" clip-rule="evenodd"/></clipPath></defs><g clip-path="url(#clip0)" transform="translate(-506 -524)"><path d="M1.74306e-06-2 116.502-1.9999 116.502 2.0001-1.74306e-06 2ZM105.51-8.72747 120.472 0.000105233 105.51 8.72765C104.556 9.28421 103.331 8.96194 102.775 8.00783 102.218 7.05373 102.541 5.82909 103.495 5.27253L115.495-1.72746 115.495 1.72766 103.495-5.27235C102.541-5.82891 102.218-7.05355 102.775-8.00765 103.331-8.96176 104.556-9.28403 105.51-8.72747Z" fill="#7F7F7F" transform="matrix(-1 -8.74228e-08 -8.74228e-08 1 645.462 542)"/></g></svg>