<svg width="37" height="82" xmlns="http://www.w3.org/2000/svg" xmlns:xlink="http://www.w3.org/1999/xlink" overflow="hidden"><defs><clipPath id="clip0"><path d="M708 72 745 72 745 154 708 154Z" fill-rule="evenodd" clip-rule="evenodd"/></clipPath></defs><g clip-path="url(#clip0)" transform="translate(-708 -72)"><path d="M2.00001 3.95999 2.0001 40.831-1.9999 40.831-1.99999 3.96ZM-8.72752 14.9523-3.04458e-07-0.0092696 8.72759 14.9522C9.28416 15.9063 8.96189 17.131 8.00778 17.6875 7.05368 18.2441 5.82905 17.9218 5.27248 16.9677L-1.72755 4.96775 1.72757 4.96774-5.2724 16.9678C-5.82896 17.9219-7.05359 18.2441-8.0077 17.6876-8.96181 17.131-9.28408 15.9064-8.72752 14.9523ZM8.72763 29.8387 0.000105291 44.8002-8.72749 29.8387C-9.28405 28.8846-8.96178 27.66-8.00768 27.1034-7.05358 26.5469-5.82894 26.8691-5.27238 27.8232L1.72765 39.8232-1.72746 39.8232 5.27251 27.8232C5.82907 26.8691 7.0537 26.5468 8.0078 27.1034 8.96191 27.66 9.28419 28.8846 8.72763 29.8387Z" fill="#7F7F7F" transform="matrix(-1 -8.74228e-08 -8.74228e-08 1 726 91)"/></g></svg>